<svg class="Egg_SVG_Base" xmlns="http://www.w3.org/2000/svg" version="1.1" xmlns:xlink="http://www.w3.org/1999/xlink" viewBox="0 0 464.5 594.9">
  <defs>
    <style>
      .Shading_Base, .Markings, .Egg_SVG_Base {
        width: 100%;
        height: 100%;
      }
      .Egg_Outline {
        fill: #ccc;
        fill-rule: evenodd;
        display: none;
      }
      .Egg {
        clip-rule: evenodd;
        fill: none;
      }
      .Egg_Bg {
      }
      .Egg_Container {
        clip-path: url(#clippath);
      }
      .Egg_Container {
        mix-blend-mode: multiply;
      }
      .st1 {
        isolation: isolate;
      }
    </style>
    <clipPath id="clippath">
      <path class="Egg st2" d="M232.3,587h0c0,0-.1,0-.2,0,0,0-.1,0-.2,0h0c-153.5-.2-245.2-137.2-221.5-299.5C34.1,125.6,154.5,8.2,232,7.9h0s.1,0,.2,0c0,0,.1,0,.2,0h0c77.6.3,198,117.7,221.7,279.6,23.7,162.3-68,299.3-221.7,299.5Z"/>
    </clipPath>
  </defs>
  <g class="st1">
    <g>
      <g >
        <path class="Egg_Bg st0" d="M232.2,589.5v-2.5c-.1,0-.2,2.5-.2,2.5,0,0,0,0-.1,0-34,0-65.8-6.7-94.5-19.9-27.6-12.6-51.8-30.8-72-54.2C16.1,458.4-4.8,375.2,8,287.1c10.9-74.4,43.2-146,91.1-201.6C142.1,35.6,191.7,5.6,231.8,5.4c0,0,.1,0,.2,0h.3c0,0,.1,0,.2,0,40.1.3,89.8,30.2,132.8,80,47.9,55.6,80.3,127.2,91.2,201.6,12.9,88-8,171.2-57.2,228.2-20.2,23.4-44.5,41.7-72.1,54.3-28.8,13.1-60.6,19.8-94.7,19.9,0,0,0,0-.1,0s-.1,0-.1,0Z"/>
        <path class="Egg_Outline st3" d="M232.3,7.9h0c77.6.3,198,117.7,221.7,279.6,23.7,162.3-68,299.3-221.7,299.5h0c0,0-.1,0-.2,0,0,0-.1,0-.2,0h0c-153.5-.2-245.2-137.2-221.5-299.5C34.1,125.6,154.5,8.2,232,7.9h0s.1,0,.2,0c0,0,.1,0,.2,0M232.3,2.9c0,0-.1,0-.2,0,0,0-.1,0-.2,0,0,0-.2,0-.3,0-19.9.1-42.9,7.7-66.3,21.8-23.4,14.1-47,34.5-68.2,59.2C49.1,139.8,16.5,211.8,5.6,286.7c-13,88.8,8.1,172.7,57.8,230.3,20.4,23.7,44.9,42.1,72.9,54.9,29.1,13.3,61.2,20,95.5,20.1,0,0,.1,0,.2,0h.2s.1,0,.1,0c0,0,.1,0,.2,0,34.4,0,66.5-6.8,95.6-20.1,28-12.8,52.5-31.2,73-54.9,49.7-57.6,70.8-141.5,57.8-230.2-10.9-74.9-43.5-146.9-91.8-202.9-21.2-24.6-44.8-45.1-68.2-59.2-23.4-14.1-46.4-21.6-66.3-21.8,0,0-.2,0-.3,0h0Z"/>
      </g>
      <g class="Egg_Container">
        <image class="Shading_Base" transform="translate(3.1 2.9) scale(1)" xlink:href="/images/egg_parts/egg_shading_base.png" />
        <image class="Markings" transform="translate(3.1 2.9) scale(1)" xlink:href="/images/egg_parts/speckles-blue.png" />
      </g>
    </g>
  </g>
</svg>