<svg 
 xmlns="http://www.w3.org/2000/svg"
 xmlns:xlink="http://www.w3.org/1999/xlink"
 width="100%" height="100%" viewBox="0 0 1912 2454" version="1.1">
<path fill-rule="evenodd"
 d="M956.229,2453.586 L956.229,2453.604 C956.014,2453.604 955.804,2453.595 955.589,2453.595 C955.374,2453.595 955.163,2453.604 954.947,2453.604 L954.947,2453.586 C304.432,2452.820 -83.810,1872.315 16.579,1184.498 C116.690,498.580 626.614,1.312 954.947,0.030 L954.947,-0.000 C955.159,-0.000 955.377,0.015 955.589,0.015 C955.801,0.015 956.018,-0.000 956.229,-0.000 L956.229,0.030 C1284.893,1.311 1795.331,498.580 1895.544,1184.498 C1996.034,1872.316 1607.400,2452.820 956.229,2453.586 Z"/>
</svg>